# xmcd
#
# Track frame offsets:
#	150
#	15857
#	32237
#	56415
#	68265
#	83225
#
# Disc length: 1365 seconds
#
# Revision: 1
# Processed by: cddbd v1.5PL3 Copyright (c) Steve Scherf et al.
# Submitted via: CDex 1.50Beta5
#
DISCID=38055306
DTITLE=森若香織 - W Rainbow
DYEAR=1900
DGENRE=Pop
TTITLE0=JUMP
TTITLE1=夢見るROCK
TTITLE2=ブルーベリーデイズ
TTITLE3=世界へようこそ
TTITLE4=大きな月
TTITLE5=アルファベッツ
EXTD=
EXTT0=
EXTT1=
EXTT2=
EXTT3=
EXTT4=
EXTT5=
PLAYORDER=
